<?xml version="1.0" encoding="iso-8859-1"?>
<!-- Generator: Adobe Illustrator 19.1.0, SVG Export Plug-In . SVG Version: 6.00 Build 0)  -->
<svg version="1.1" id="Capa_1" xmlns="http://www.w3.org/2000/svg" xmlns:xlink="http://www.w3.org/1999/xlink" x="0px" y="0px"
	 viewBox="0 0 491.858 491.858" style="enable-background:new 0 0 491.858 491.858;" xml:space="preserve">
<g>
	<g>
		<g>
			<path d="M245.929,0.001C110.106,0.001,0,110.106,0,245.929s110.106,245.928,245.929,245.928
				c54.538,0,104.919-17.764,145.702-47.806c-2.169-0.146-4.286-1.097-5.853-2.847l-40.28-45.014l-21.693,33.293l-17.911-90.492
				l92.117,28.655l-39.651,17.035l40.28,45.016c1.869,2.086,2.503,4.825,2.012,7.378c55.635-45.087,91.206-113.957,91.206-191.147
				C491.858,110.106,381.752,0.001,245.929,0.001z"/>
			<g style="enable-background:new    ;">
				<path style="fill:#FFFFFF;" d="M91.849,263.346l2.255,12.53l0.25,0.084l2.757-12.614l18.21-57.806h12.53l18.211,57.806
					l2.924,13.7h0.25l2.84-13.7l14.619-57.806h15.371l-26.23,90.385h-12.531l-17.876-55.718l-3.926-16.123h-0.25l-3.759,16.123
					l-17.542,55.718H87.338l-26.23-90.385h15.454L91.849,263.346z"/>
				<path style="fill:#FFFFFF;" d="M221.329,263.346l2.255,12.53l0.25,0.084l2.757-12.614l18.21-57.806h12.531l18.211,57.806
					l2.922,13.7h0.252l2.84-13.7l14.619-57.806h15.369l-26.229,90.385h-12.531l-17.877-55.718l-3.926-16.123h-0.25l-3.76,16.123
					l-17.542,55.718h-12.614l-26.23-90.385h15.454L221.329,263.346z"/>
				<path style="fill:#FFFFFF;" d="M350.809,263.346l2.255,12.53l0.251,0.084l2.757-12.614l18.211-57.806h12.53l18.211,57.806
					l2.923,13.7h0.251l2.84-13.7l14.619-57.806h15.37l-26.229,90.385h-12.53l-17.877-55.718l-3.926-16.123h-0.251l-3.759,16.123
					l-17.543,55.718h-12.613l-26.23-90.385h15.454L350.809,263.346z"/>
			</g>
		</g>
	</g>
	<g>
	</g>
	<g>
	</g>
	<g>
	</g>
	<g>
	</g>
	<g>
	</g>
	<g>
	</g>
	<g>
	</g>
	<g>
	</g>
	<g>
	</g>
	<g>
	</g>
	<g>
	</g>
	<g>
	</g>
	<g>
	</g>
	<g>
	</g>
	<g>
	</g>
</g>
<g>
</g>
<g>
</g>
<g>
</g>
<g>
</g>
<g>
</g>
<g>
</g>
<g>
</g>
<g>
</g>
<g>
</g>
<g>
</g>
<g>
</g>
<g>
</g>
<g>
</g>
<g>
</g>
<g>
</g>
</svg>
